<?xml version="1.0" encoding="UTF-8" standalone="no"?>
<!-- Created with Inkscape (http://www.inkscape.org/) -->

<svg
   xmlns:dc="http://purl.org/dc/elements/1.1/"
   xmlns:cc="http://creativecommons.org/ns#"
   xmlns:rdf="http://www.w3.org/1999/02/22-rdf-syntax-ns#"
   xmlns:svg="http://www.w3.org/2000/svg"
   xmlns="http://www.w3.org/2000/svg"
   xmlns:sodipodi="http://sodipodi.sourceforge.net/DTD/sodipodi-0.dtd"
   xmlns:inkscape="http://www.inkscape.org/namespaces/inkscape"
   width="500"
   height="300"
   viewBox="0 0 132.29167 79.375"
   version="1.1"
   id="svg4768"
   inkscape:version="0.92.3 (2405546, 2018-03-11)"
   sodipodi:docname="fhmc.svg">
  <defs
     id="defs4762" />
  <sodipodi:namedview
     id="base"
     pagecolor="#ffffff"
     bordercolor="#666666"
     borderopacity="1.0"
     inkscape:pageopacity="0.0"
     inkscape:pageshadow="2"
     inkscape:zoom="3.9033333"
     inkscape:cx="247.60004"
     inkscape:cy="150.69742"
     inkscape:document-units="px"
     inkscape:current-layer="layer1"
     showgrid="false"
     units="px"
     inkscape:window-width="2560"
     inkscape:window-height="1352"
     inkscape:window-x="0"
     inkscape:window-y="24"
     inkscape:window-maximized="1" />
  <metadata
     id="metadata4765">
    <rdf:RDF>
      <cc:Work
         rdf:about="">
        <dc:format>image/svg+xml</dc:format>
        <dc:type
           rdf:resource="http://purl.org/dc/dcmitype/StillImage" />
        <dc:title></dc:title>
      </cc:Work>
    </rdf:RDF>
  </metadata>
  <g
     inkscape:label="Layer 1"
     inkscape:groupmode="layer"
     id="layer1"
     transform="translate(0,-217.625)">
    <path
       style="fill:#000000;fill-opacity:1;stroke:#000000;stroke-width:2.90199995;stroke-miterlimit:4;stroke-dasharray:none;stroke-opacity:1"
       d="m 237.67969,104.31836 c -1.63227,0.0624 -3.38022,0.37553 -5.19141,0.86328 l -0.7539,83.14063 c 10.51199,0.864 12.8164,2.73661 12.8164,10.22461 v 68.40039 c 0,8.64 -1.87151,10.36753 -13.10351,11.51953 v 3.59961 h 33.69531 v -3.59961 c -11.80801,-0.864 -14.54492,-3.59986 -14.54492,-14.25586 v -67.67969 l 36.28906,85.53516 h 3.88867 l 36.28711,-87.69532 v 73.29493 c 0,8.064 -2.0164,9.79278 -12.81641,10.80078 v 3.59961 h 47.8086 v -3.59961 c -11.232,-1.44 -12.67188,-3.02405 -12.67188,-13.24805 v -63.64844 c 0,-10.368 2.15988,-12.52804 12.67188,-13.24804 V 162.4082 c -3.20483,-0.84291 -6.57769,-1.75203 -10.30469,-2.80078 -8.38136,-3.37414 -17.11411,-7.18951 -25.9668,-11.26758 l -0.0176,36.38282 -28.79882,67.96875 -28.80078,-67.96875 0.41796,-65.20118 c -8.70582,-4.71063 -17.02382,-9.34421 -24.68945,-13.71484 -1.72669,-1.15112 -3.85033,-1.57871 -6.21484,-1.48828 z m -10.89063,2.85352 c -8.03615,3.32795 -16.28343,8.62389 -20.81054,10.67578 -6.38558,3.41432 -17.40109,9.11047 -28.14844,14.73437 v 55.74024 c 10.08,0.72 12.95898,3.02461 12.95898,10.22461 v 29.80859 h -34.70312 v -29.80859 c 0,-7.2 2.87898,-9.50461 12.95898,-10.22461 v -51.11133 c -1.51684,0.8023 -3.14206,1.65156 -4.57031,2.41406 -5.60587,1.86864 -18.83238,8.07105 -24.33789,10.24609 -6.6375,2.31647 -13.26469,5.4734 -19.61914,8.4375 v 30.01368 c 9.648,0.864 12.24023,3.02461 12.24023,10.22461 v 69.69531 c 0,7.056 -2.16023,8.92861 -12.24023,10.22461 v 3.59961 h 48.52734 v -3.59961 c -10.512,-1.152 -12.95898,-3.16861 -12.95898,-10.22461 v -33.11914 h 34.70312 v 33.11914 c 0,7.056 -2.44698,9.07261 -12.95898,10.22461 v 3.59961 h 48.95898 v -3.59961 c -10.368,-1.296 -12.67187,-3.16861 -12.67187,-10.22461 v -69.69531 c 0,-7.2 2.87987,-9.50461 12.67187,-10.22461 z m 46.79492,15.01757 v 58.68164 h 47.16797 v -34.875 c -15.90641,-7.46943 -32.01341,-15.69507 -47.16797,-23.80664 z m -160.16992,39.35547 c -2.79741,1.22086 -5.51293,2.31682 -8.11914,3.18555 -24.712008,7.46876 -47.1603,12.47465 -70.964842,15.37109 -0.84476,0.28159 -1.701921,0.52793 -2.564453,0.75586 v 7.46485 c 9.936001,0.576 12.671875,2.73661 12.671875,10.22461 v 69.69531 c 0,7.488 -2.015874,9.07261 -12.671875,10.22461 v 3.59961 h 51.839844 v -3.59961 c -13.248,-0.576 -15.839844,-2.30461 -15.839844,-10.22461 v -33.55078 c 14.688,0.288 20.017203,5.61436 22.033203,22.31836 h 3.59961 v -48.67188 h -3.59961 c -2.592,16.416 -7.633203,21.45703 -22.033203,21.45703 v -33.4082 c 0,-5.328 1.872797,-6.76758 9.216797,-6.76758 13.248003,0 21.743031,2.44828 26.207028,7.48828 3.168,3.6 4.75158,7.4866 6.76758,16.5586 h 3.45703 z m 252.98633,1.98633 -0.32617,70.58398 c -0.13701,29.6637 21.16856,50.6875 50.97656,50.6875 10.224,0 18.71867,-2.44739 26.63867,-7.77539 4.608,-3.168 7.77782,-6.04804 14.25782,-13.24804 l -4.32032,-3.60157 c -8.496,8.928 -13.10415,12.3851 -20.16015,15.1211 -4.176,1.728 -8.92894,2.59179 -12.96094,2.59179 -9.504,0 -18.57595,-5.03934 -22.75195,-12.52734 -4.176,-7.632 -6.19141,-18.00039 -6.19141,-32.40039 0,-29.808 9.21609,-45.64844 26.49609,-45.64844 6.768,0 12.96035,2.59246 19.15235,8.06446 6.192,5.616 9.50297,10.3685 14.54297,21.3125 h 3.59961 v -34.62696 c -0.63397,-0.12617 -1.26567,-0.26304 -1.89454,-0.42578 -10.77309,-2.78782 -15.33023,-5.45738 -24.08203,-6.91601 -27.08762,-4.51461 -37.31583,-4.69533 -62.97656,-11.19141 z"
       transform="matrix(0.26458334,0,0,0.26458334,0,217.625)"
       id="rect4853"
       inkscape:connector-curvature="0"
       sodipodi:nodetypes="cccssccccsccccsccccssccccccccccccccsccsccccccssccccsccsccccssccccccccccccssccccsccccccssccccccsccccscssccccssc" />
    <path
       style="fill:#ffffff;stroke:#000000;stroke-width:0.69999999;stroke-linecap:butt;stroke-linejoin:miter;stroke-opacity:1;fill-opacity:1;stroke-miterlimit:4;stroke-dasharray:none"
       d="M 238.55469 104.30859 C 238.26696 104.30331 237.97525 104.30706 237.67969 104.31836 C 236.04742 104.38078 234.29947 104.69389 232.48828 105.18164 L 232.31445 124.35938 C 232.43005 124.24789 232.53367 124.12723 232.62109 123.99609 C 233.02642 123.38812 233.49142 121.02461 234.41406 121.94727 C 235.44002 122.97322 238.42604 123.13892 239.53906 124.25195 C 241.39989 126.11277 247.48047 131.68933 247.48047 132.45117 C 247.48047 133.44768 253.49315 137.19826 253.62891 137.0625 C 255.52366 135.16775 250.65902 125.63756 249.78711 124.76562 C 248.77752 123.75604 246.47659 123.26959 245.94336 122.20312 C 245.14517 120.60677 241.87489 119.12891 242.61328 119.12891 C 248.25513 119.12891 250.33131 126.44595 254.6543 128.60742 C 259.69146 131.12602 253.95326 117.40248 255.93555 119.38477 C 257.91925 121.36849 259.80121 124.13599 262.5957 125.5332 C 263.38121 125.92595 266.36444 128.26359 268.51758 129.94727 L 268.52734 128.44336 C 266.27159 125.26535 263.30455 120.92188 264.38867 120.92188 C 264.75003 120.92188 266.76682 123.3 267.20703 123.74023 C 267.63388 124.16708 268.09436 124.59221 268.54883 125.01758 L 268.58398 119.52148 C 259.87816 114.81085 251.56016 110.17727 243.89453 105.80664 C 242.38368 104.79941 240.56881 104.34559 238.55469 104.30859 z M 226.78906 107.17188 C 218.75291 110.49983 210.50563 115.79577 205.97852 117.84766 C 200.12958 120.97504 190.32445 126.05791 180.4707 131.20508 C 182.71731 133.92454 184.89515 136.21937 185.99414 137.31836 C 186.04554 137.36976 187.16521 138.14296 187.27539 138.08789 C 189.90486 136.77314 190.63414 131.68164 194.44922 131.68164 C 195.09649 131.68164 196.43685 134.35625 198.03516 134.75586 C 198.78955 134.94446 201.66763 135.11718 202.39062 134.75586 C 202.76397 134.56915 206.71932 129.14787 207.51562 128.35156 C 208.48902 127.37818 211.14704 127.79437 212.12695 126.81445 C 212.50577 126.43563 213.4009 126.30273 213.91992 126.30273 C 218.57469 126.30273 209.45862 141.26798 215.45703 135.26953 C 216.59071 134.13586 218.12979 134.57282 219.29883 133.98828 C 220.86837 133.20352 224.26708 130.54771 226.78906 128.44727 L 226.78906 107.17188 z M 273.58398 122.18945 L 273.58398 129.29102 C 277.43614 132.25348 281.72884 134.97184 285.91016 137.0625 C 286.88757 137.55119 291.18848 139.56833 291.54492 138.85547 C 295.96184 135.14545 291.0376 132.00539 282.06641 127.07031 C 281.90192 126.94695 281.82131 126.75612 281.78906 126.52539 C 279.03854 125.07964 276.28069 123.63288 273.58398 122.18945 z "
       transform="matrix(0.26458334,0,0,0.26458334,0,217.625)"
       id="path4885" />
  </g>
</svg>
